<svg width="506" height="317" viewBox="0 0 506 317" fill="none" xmlns="http://www.w3.org/2000/svg">
<path d="M437.1 141.2C451.9 130.8 461.7 113.5 461.7 94C461.7 62.1 435.9 36.3 404 36.3C372.1 36.3 346.3 62.1 346.3 94C346.3 113.5 356 130.8 370.9 141.2C358.2 145.6 346.6 152.4 336.8 161.2C323.3 149.7 307.4 140.9 290 135.7C311.1 122.9 325.3 99.6 325.3 73.1C325.3 32.7 292.6 0 252.2 0C211.8 0 179.1 32.8 179.1 73.1C179.1 99.6 193.2 122.9 214.4 135.7C197.2 140.9 181.5 149.6 168.1 160.9C158.3 152.3 146.9 145.6 134.4 141.3C149.2 130.9 159 113.6 159 94.1C159 62.2 133.2 36.4 101.3 36.4C69.4 36.4 43.6 62.2 43.6 94.1C43.6 113.6 53.3 130.9 68.2 141.3C28.5 155 0 192.7 0 237V243.6C0 243.8 0.2 244 0.4 244H122.7C122 249.5 121.6 255.2 121.6 260.9V267.7C121.6 297.1 145.4 320.9 174.8 320.9H329.8C359.2 320.9 383 297.1 383 267.7V260.9C383 255.2 382.6 249.5 381.9 244H505C505.2 244 505.4 243.8 505.4 243.6V237C505.2 192.6 476.8 154.9 437.1 141.2ZM362.3 93.9C362.3 70.9 381 52.2 404 52.2C427 52.2 445.7 70.9 445.7 93.9C445.7 116.6 427.4 135.1 404.8 135.6C404.5 135.6 404.3 135.6 404 135.6C403.7 135.6 403.5 135.6 403.2 135.6C380.5 135.2 362.3 116.7 362.3 93.9ZM194.9 73.1C194.9 41.6 220.5 16 252 16C283.5 16 309.1 41.6 309.1 73.1C309.1 103.5 285.2 128.4 255.3 130.1C254.2 130.1 253.1 130.1 252 130.1C250.9 130.1 249.8 130.1 248.7 130.1C218.8 128.4 194.9 103.5 194.9 73.1ZM59.3 93.9C59.3 70.9 78 52.2 101 52.2C124 52.2 142.7 70.9 142.7 93.9C142.7 116.6 124.4 135.1 101.8 135.6C101.5 135.6 101.3 135.6 101 135.6C100.7 135.6 100.5 135.6 100.2 135.6C77.6 135.2 59.3 116.7 59.3 93.9ZM125.5 227.9H16.2C20.7 185.3 56.7 151.9 100.4 151.6C100.6 151.6 100.8 151.6 101 151.6C101.2 151.6 101.4 151.6 101.6 151.6C122.4 151.7 141.4 159.4 156.1 171.9C141.7 187.5 131 206.7 125.5 227.9ZM366.8 267.7C366.8 288.2 350.1 304.9 329.6 304.9H174.6C154.1 304.9 137.4 288.2 137.4 267.7V260.9C137.4 198.8 187 148 248.7 146.2C249.8 146.3 251 146.3 252.1 146.3C253.2 146.3 254.4 146.3 255.5 146.2C317.2 148 366.8 198.8 366.8 260.9V267.7V267.7ZM378.7 227.9C373.2 206.8 362.7 187.9 348.4 172.3C363.2 159.5 382.4 151.8 403.4 151.6C403.6 151.6 403.8 151.6 404 151.6C404.2 151.6 404.4 151.6 404.6 151.6C448.3 151.9 484.3 185.3 488.8 227.9H378.7Z" fill="#E5E5E5"/>
</svg>
