<svg width="491" height="514" viewBox="0 0 491 514" fill="none" xmlns="http://www.w3.org/2000/svg">
<path d="M245.333 257.323C110.058 257.323 0 367.382 0 502.656C0 508.544 4.779 513.323 10.667 513.323C16.555 513.323 21.334 508.544 21.334 502.656C21.334 379.136 121.814 278.656 245.334 278.656C368.854 278.656 469.334 379.136 469.334 502.656C469.334 508.544 474.113 513.323 480.001 513.323C485.889 513.323 490.668 508.544 490.668 502.656C490.667 367.36 380.608 257.323 245.333 257.323Z" fill="#E5E5E5"/>
<path d="M245.333 0C180.65 0 128 52.629 128 117.333C128 182.037 180.651 234.666 245.333 234.666C310.015 234.666 362.666 182.037 362.666 117.333C362.666 52.629 310.016 0 245.333 0ZM245.333 213.333C192.405 213.333 149.333 170.261 149.333 117.333C149.333 64.405 192.405 21.333 245.333 21.333C298.261 21.333 341.333 64.405 341.333 117.333C341.333 170.261 298.261 213.333 245.333 213.333Z" fill="#E5E5E5"/>
</svg>
