<svg width="464" height="464" viewBox="0 0 464 464" fill="none" xmlns="http://www.w3.org/2000/svg">
<path d="M232 464C360.13 464 464 360.13 464 232C464 103.87 360.13 0 232 0C103.87 0 0 103.87 0 232C0 360.13 103.87 464 232 464Z" fill="#ADADAD"/>
<path d="M284.76 247.952C310.608 230.744 327.656 201.376 327.656 168C327.656 114.984 284.672 72 231.656 72C178.64 72 135.656 114.984 135.656 168C135.656 201.376 152.704 230.744 178.552 247.952C178.552 247.952 178.56 247.96 178.568 247.96C178.56 247.96 178.56 247.952 178.56 247.952C116.688 266.6 68.512 316.816 53 379.992L53.008 380C55.536 383.048 58.16 386.024 60.84 388.944C61.488 389.656 62.168 390.336 62.832 391.032C64.896 393.224 66.984 395.384 69.128 397.496C70.016 398.368 70.92 399.208 71.824 400.064C73.808 401.952 75.816 403.816 77.864 405.632C78.88 406.528 79.912 407.416 80.936 408.296C82.944 410.016 84.976 411.704 87.048 413.352C88.136 414.224 89.232 415.08 90.328 415.936C92.424 417.552 94.552 419.12 96.704 420.656C97.816 421.448 98.912 422.256 100.04 423.032C102.312 424.6 104.624 426.104 106.952 427.592C108 428.256 109.024 428.944 110.08 429.6C112.768 431.256 115.504 432.84 118.264 434.392C118.992 434.8 119.704 435.24 120.44 435.64C124.008 437.592 127.632 439.464 131.312 441.232C131.4 441.272 131.496 441.312 131.584 441.352C135.096 443.032 138.664 444.624 142.272 446.128C143.392 446.6 144.536 447.016 145.664 447.464C148.272 448.504 150.88 449.528 153.536 450.472C154.944 450.976 156.368 451.432 157.784 451.912C160.2 452.728 162.632 453.52 165.08 454.248C166.632 454.712 168.192 455.144 169.76 455.576C172.128 456.232 174.512 456.856 176.92 457.44C178.544 457.832 180.176 458.208 181.816 458.568C184.224 459.096 186.64 459.576 189.072 460.024C190.72 460.328 192.36 460.64 194.024 460.904C196.536 461.312 199.064 461.656 201.6 461.984C203.2 462.192 204.792 462.424 206.4 462.592C209.2 462.896 212.024 463.112 214.848 463.312C216.216 463.408 217.568 463.552 218.936 463.624C223.152 463.864 227.384 464 231.656 464C235.928 464 240.16 463.864 244.376 463.64C245.744 463.568 247.104 463.424 248.464 463.328C251.296 463.128 254.12 462.912 256.912 462.608C258.52 462.432 260.112 462.208 261.712 462C264.248 461.672 266.776 461.328 269.288 460.92C270.944 460.648 272.592 460.344 274.24 460.04C276.672 459.592 279.096 459.112 281.496 458.584C283.136 458.224 284.768 457.848 286.392 457.456C288.792 456.872 291.176 456.248 293.552 455.592C295.112 455.16 296.68 454.728 298.232 454.264C300.688 453.528 303.112 452.736 305.528 451.928C306.944 451.448 308.376 450.992 309.776 450.488C312.424 449.536 315.04 448.52 317.648 447.48C318.776 447.032 319.92 446.608 321.04 446.144C324.632 444.64 328.184 443.064 331.68 441.384C331.784 441.336 331.896 441.288 332 441.24C335.68 439.472 339.304 437.6 342.872 435.648C343.608 435.248 344.32 434.808 345.048 434.4C347.808 432.848 350.544 431.264 353.232 429.608C354.288 428.96 355.32 428.272 356.36 427.6C358.688 426.112 361 424.6 363.272 423.04C364.392 422.264 365.496 421.464 366.608 420.664C368.76 419.12 370.888 417.552 372.984 415.944C374.088 415.096 375.176 414.232 376.264 413.36C378.328 411.712 380.368 410.024 382.376 408.304C383.408 407.424 384.44 406.536 385.448 405.64C387.496 403.824 389.504 401.96 391.488 400.072C392.384 399.216 393.296 398.368 394.184 397.504C396.328 395.392 398.424 393.232 400.48 391.04C401.136 390.336 401.816 389.656 402.472 388.952C405.152 386.032 407.776 383.056 410.304 380.008L410.312 380C394.808 316.816 346.632 266.6 284.76 247.952Z" fill="#313131"/>
</svg>
